<?xml version="1.0" encoding="UTF-8"?>
<!DOCTYPE svg PUBLIC "-//W3C//DTD SVG 1.1//EN" "http://www.w3.org/Graphics/SVG/1.1/DTD/svg11.dtd">
<!-- Creator: CorelDRAW 2018 (64-Bit) -->
<svg xmlns="http://www.w3.org/2000/svg" xml:space="preserve" width="190mm" height="90mm" version="1.1" style="shape-rendering:geometricPrecision; text-rendering:geometricPrecision; image-rendering:optimizeQuality; fill-rule:evenodd; clip-rule:evenodd"
viewBox="0 0 19000 9000"
 xmlns:xlink="http://www.w3.org/1999/xlink">
 <defs>
  <style type="text/css">
   <![CDATA[
    .str1 {stroke:#FEFEFE;stroke-width:200;stroke-miterlimit:22.9256}
    .str0 {stroke:#FEFEFE;stroke-width:100;stroke-linejoin:round;stroke-miterlimit:22.9256}
    .fil0 {fill:none}
    .fil1 {fill:white}
   ]]>
  </style>
 </defs>
 <g id="Warstwa_x0020_1">
  <metadata id="CorelCorpID_0Corel-Layer"/>
  <path class="fil0 str0" d="M9403.2 2260.57l1598.68 -1229.92 -611.29 1266.75 -1422.75 890.69 435.36 -927.52zm-5724.49 4657.42l-3070.58 1112.66 1055.23 -1481.51 17.06 -4054.67 -1072.29 -1492.24 3177.12 1143.63 503.39 1084.21 -1670.53 -537.6 -16.76 1147.99 1952.81 690.19 -1978.59 538.92 -5.3 1285.95 1621.58 -564.21 -513.14 1126.68zm1905.27 138.18l-1958.61 1474.48 2014.7 -4000 -2004.41 -4000 1956.25 1494.6 1010.18 2077.37 1023.51 -2039.43 2000.52 -1532.54 -2019.76 4000 2021.24 4000 -1966.53 -1499.09 -1062.74 -2046.85 -1014.35 2071.46zm2742.93 -2502.67l283.68 -604.34 1413.18 -841.51 -710.87 1423 1665.81 3592.61 -1617.92 -1276.84 -1033.88 -2292.92zm6049.51 3477.15l-2903.52 -500 -1546.24 -3000.01 955.51 -2196.88 1539.55 -1303.11 -1560.61 3499.99 1054.74 2124.43 2460.57 1375.58zm912.73 0l-2778.96 -1677 -967.84 -1822.99 851.72 -2003.11 3090.91 -1496.9 -850.14 1367.06 -10.8 1066.42 -1074.75 -556.79 -460.99 258.29 -352.55 830.17 1766.05 534.85 -1680.32 632.34 326.37 633.05 757.79 430.19 717.62 -850.03 -74.71 1157.03 740.6 1497.42zm438.66 -500l1274.41 658.75 -370.6 -1105.66 1751.58 -2553.08 -1617.66 -2457.09 448.81 -1042.92 -1305.35 500 -715.47 1039.52 -45.49 3755.44 579.77 1205.04zm250.42 -4555.58l264.14 -386.41 1297.8 1941.99 -1412.61 2027.76 -227.5 -499.47 78.17 -3083.87z"/>
  <path class="fil1 str1" d="M9626.18 2385.06l652.41 -491.54 -92.13 205.53 -629.68 423.97 69.4 -137.96zm-4265.78 -167.99l1138.71 2313.58 -1130.1 2323.78 -963.48 742.37 1555.36 -3066.15 -1536.04 -3042.99 935.55 729.41zm3260.85 2313.58l207.62 -402.89 557.12 -339.13 -390.59 742.02 1242.47 2646.72 -638.95 -516.16 -977.67 -2130.56zm4312.19 3000l-1256.49 -247.93 -1459.25 -2752.07 866.21 -2005.06 607.59 -511.08 -1134.66 2516.14 1170.49 2322.86 1206.11 677.14zm1692.68 -207.3l-1877.81 -1154.91 -914.92 -1637.79 765.74 -1807.96 2185.07 -1078.09 -413.95 660.51 -22.37 697.83 -782.05 -416.41 -715.66 393.89 -464.99 1184.05 1389 392.64 -1329.73 476.89 475.2 937.31 1068.68 585.65 325.99 -415.53 -46.89 497.62 358.69 684.3zm1296.82 5.55l601.11 301.89 -203.32 -593.36 1728.42 -2506.78 -1611.03 -2427.32 290.79 -611.71 -638.02 273.85 -616.25 917.15 -47.78 3593.39 496.08 1052.89zm-205.98 -4456.36l538.65 -746.91 1602.06 2405.02 -1763.17 2556.92 -494.42 -962.82 116.88 -3252.21zm-12263.15 3847.01l-2176.03 811.1 670 -862.45 -9.39 -4253.1 -640.43 -884.45 2292.15 816.96 209.05 469.05 -1446.84 -481.4 0.4 1732.4 1205.89 424.45 -1241.33 339.33 1.63 1874.65 1374.29 -464.52 -239.39 477.98zm3237.12 -2188.9l1119.88 -2255.8 1022.95 -797.12 -1531.67 3052.92 1501.99 3000 -901.58 -671.07 -1211.57 -2328.93z"/>
 </g>
</svg>
